<svg width="301" height="80" viewBox="0 0 301 80" fill="none" xmlns="http://www.w3.org/2000/svg">
<rect width="80" height="80" rx="32" fill="#E01A4F"/>
<path d="M26.493 60.272C24.669 60.272 22.905 60.044 21.201 59.588C19.521 59.156 18.117 58.496 16.989 57.608L19.221 53.576C20.037 54.248 21.069 54.776 22.317 55.16C23.589 55.568 24.837 55.772 26.061 55.772C28.053 55.772 29.493 55.328 30.381 54.44C31.293 53.552 31.749 52.232 31.749 50.48V47.564L32.109 42.704L32.037 37.808V33.632H37.365V49.76C37.365 53.36 36.429 56.012 34.557 57.716C32.685 59.42 29.997 60.272 26.493 60.272ZM25.629 52.064C23.829 52.064 22.197 51.68 20.733 50.912C19.293 50.12 18.129 49.028 17.241 47.636C16.377 46.22 15.945 44.576 15.945 42.704C15.945 40.808 16.377 39.164 17.241 37.772C18.129 36.356 19.293 35.264 20.733 34.496C22.197 33.728 23.829 33.344 25.629 33.344C27.261 33.344 28.701 33.68 29.949 34.352C31.197 35 32.169 36.02 32.865 37.412C33.561 38.78 33.909 40.544 33.909 42.704C33.909 44.84 33.561 46.604 32.865 47.996C32.169 49.364 31.197 50.384 29.949 51.056C28.701 51.728 27.261 52.064 25.629 52.064ZM26.745 47.456C27.729 47.456 28.605 47.264 29.373 46.88C30.141 46.472 30.741 45.908 31.173 45.188C31.605 44.468 31.821 43.64 31.821 42.704C31.821 41.744 31.605 40.916 31.173 40.22C30.741 39.5 30.141 38.948 29.373 38.564C28.605 38.156 27.729 37.952 26.745 37.952C25.761 37.952 24.885 38.156 24.117 38.564C23.349 38.948 22.737 39.5 22.281 40.22C21.849 40.916 21.633 41.744 21.633 42.704C21.633 43.64 21.849 44.468 22.281 45.188C22.737 45.908 23.349 46.472 24.117 46.88C24.885 47.264 25.761 47.456 26.745 47.456ZM51.7 60.272C49.876 60.272 48.112 60.044 46.408 59.588C44.728 59.156 43.324 58.496 42.196 57.608L44.428 53.576C45.244 54.248 46.276 54.776 47.524 55.16C48.796 55.568 50.044 55.772 51.268 55.772C53.26 55.772 54.7 55.328 55.588 54.44C56.5 53.552 56.956 52.232 56.956 50.48V47.564L57.316 42.704L57.244 37.808V33.632H62.572V49.76C62.572 53.36 61.636 56.012 59.764 57.716C57.892 59.42 55.204 60.272 51.7 60.272ZM50.836 52.064C49.036 52.064 47.404 51.68 45.94 50.912C44.5 50.12 43.336 49.028 42.448 47.636C41.584 46.22 41.152 44.576 41.152 42.704C41.152 40.808 41.584 39.164 42.448 37.772C43.336 36.356 44.5 35.264 45.94 34.496C47.404 33.728 49.036 33.344 50.836 33.344C52.468 33.344 53.908 33.68 55.156 34.352C56.404 35 57.376 36.02 58.072 37.412C58.768 38.78 59.116 40.544 59.116 42.704C59.116 44.84 58.768 46.604 58.072 47.996C57.376 49.364 56.404 50.384 55.156 51.056C53.908 51.728 52.468 52.064 50.836 52.064ZM51.952 47.456C52.936 47.456 53.812 47.264 54.58 46.88C55.348 46.472 55.948 45.908 56.38 45.188C56.812 44.468 57.028 43.64 57.028 42.704C57.028 41.744 56.812 40.916 56.38 40.22C55.948 39.5 55.348 38.948 54.58 38.564C53.812 38.156 52.936 37.952 51.952 37.952C50.968 37.952 50.092 38.156 49.324 38.564C48.556 38.948 47.944 39.5 47.488 40.22C47.056 40.916 46.84 41.744 46.84 42.704C46.84 43.64 47.056 44.468 47.488 45.188C47.944 45.908 48.556 46.472 49.324 46.88C50.092 47.264 50.968 47.456 51.952 47.456Z" fill="white"/>
<path d="M101.664 57.788C99.552 57.788 97.536 57.5 95.616 56.924C93.728 56.348 92.24 55.644 91.152 54.812L93.072 51.164C94.16 51.9 95.504 52.524 97.104 53.036C98.704 53.548 100.336 53.804 102 53.804C104.144 53.804 105.68 53.5 106.608 52.892C107.568 52.284 108.048 51.436 108.048 50.348C108.048 49.548 107.76 48.924 107.184 48.476C106.608 48.028 105.84 47.692 104.88 47.468C103.952 47.244 102.912 47.052 101.76 46.892C100.608 46.7 99.456 46.476 98.304 46.22C97.152 45.932 96.096 45.548 95.136 45.068C94.176 44.556 93.408 43.868 92.832 43.004C92.256 42.108 91.968 40.924 91.968 39.452C91.968 37.916 92.4 36.572 93.264 35.42C94.128 34.268 95.344 33.388 96.912 32.78C98.512 32.14 100.4 31.82 102.576 31.82C104.24 31.82 105.92 32.028 107.616 32.444C109.344 32.828 110.752 33.388 111.84 34.124L109.872 37.772C108.72 37.004 107.52 36.476 106.272 36.188C105.024 35.9 103.776 35.756 102.528 35.756C100.512 35.756 99.008 36.092 98.016 36.764C97.024 37.404 96.528 38.236 96.528 39.26C96.528 40.124 96.816 40.796 97.392 41.276C98 41.724 98.768 42.076 99.696 42.332C100.656 42.588 101.712 42.812 102.864 43.004C104.016 43.164 105.168 43.388 106.32 43.676C107.472 43.932 108.512 44.3 109.44 44.78C110.4 45.26 111.168 45.932 111.744 46.796C112.352 47.66 112.656 48.812 112.656 50.252C112.656 51.788 112.208 53.116 111.312 54.236C110.416 55.356 109.152 56.236 107.52 56.876C105.888 57.484 103.936 57.788 101.664 57.788ZM129.311 57.788C126.751 57.788 124.479 57.228 122.495 56.108C120.511 54.988 118.943 53.452 117.791 51.5C116.639 49.516 116.063 47.276 116.063 44.78C116.063 42.252 116.639 40.012 117.791 38.06C118.943 36.108 120.511 34.588 122.495 33.5C124.479 32.38 126.751 31.82 129.311 31.82C131.839 31.82 134.095 32.38 136.079 33.5C138.095 34.588 139.663 36.108 140.783 38.06C141.935 39.98 142.511 42.22 142.511 44.78C142.511 47.308 141.935 49.548 140.783 51.5C139.663 53.452 138.095 54.988 136.079 56.108C134.095 57.228 131.839 57.788 129.311 57.788ZM129.311 53.756C130.943 53.756 132.399 53.388 133.679 52.652C134.991 51.916 136.015 50.876 136.751 49.532C137.487 48.156 137.855 46.572 137.855 44.78C137.855 42.956 137.487 41.388 136.751 40.076C136.015 38.732 134.991 37.692 133.679 36.956C132.399 36.22 130.943 35.852 129.311 35.852C127.679 35.852 126.223 36.22 124.943 36.956C123.663 37.692 122.639 38.732 121.871 40.076C121.103 41.388 120.719 42.956 120.719 44.78C120.719 46.572 121.103 48.156 121.871 49.532C122.639 50.876 123.663 51.916 124.943 52.652C126.223 53.388 127.679 53.756 129.311 53.756ZM149.556 57.5V29.804C149.556 27.308 150.276 25.324 151.716 23.852C153.188 22.348 155.268 21.596 157.956 21.596C158.948 21.596 159.892 21.724 160.788 21.98C161.716 22.204 162.5 22.572 163.14 23.084L161.748 26.588C161.268 26.204 160.724 25.916 160.116 25.724C159.508 25.5 158.868 25.388 158.196 25.388C156.852 25.388 155.828 25.772 155.124 26.54C154.42 27.276 154.068 28.38 154.068 29.852V33.26L154.164 35.372V57.5H149.556ZM145.236 35.852V32.06H161.46V35.852H145.236ZM174.542 57.788C171.982 57.788 169.998 57.1 168.59 55.724C167.182 54.348 166.478 52.38 166.478 49.82V26.492H171.086V49.628C171.086 51.004 171.422 52.06 172.094 52.796C172.798 53.532 173.79 53.9 175.07 53.9C176.51 53.9 177.71 53.5 178.67 52.7L180.11 56.012C179.406 56.62 178.558 57.068 177.566 57.356C176.606 57.644 175.598 57.788 174.542 57.788ZM162.158 35.852V32.06H178.382V35.852H162.158ZM190.588 57.5L181.132 32.06H185.5L193.9 55.1H191.836L200.572 32.06H204.46L213.004 55.1H210.988L219.58 32.06H223.708L214.204 57.5H209.788L201.772 36.476H203.116L195.004 57.5H190.588ZM243.144 57.5V52.124L242.904 51.116V41.948C242.904 39.996 242.328 38.492 241.176 37.436C240.056 36.348 238.36 35.804 236.088 35.804C234.584 35.804 233.112 36.06 231.672 36.572C230.232 37.052 229.016 37.708 228.024 38.54L226.104 35.084C227.416 34.028 228.984 33.228 230.808 32.684C232.664 32.108 234.6 31.82 236.616 31.82C240.104 31.82 242.792 32.668 244.68 34.364C246.568 36.06 247.512 38.652 247.512 42.14V57.5H243.144ZM234.792 57.788C232.904 57.788 231.24 57.468 229.8 56.828C228.392 56.188 227.304 55.308 226.536 54.188C225.768 53.036 225.384 51.74 225.384 50.3C225.384 48.924 225.704 47.676 226.344 46.556C227.016 45.436 228.088 44.54 229.56 43.868C231.064 43.196 233.08 42.86 235.608 42.86H243.672V46.172H235.8C233.496 46.172 231.944 46.556 231.144 47.324C230.344 48.092 229.944 49.02 229.944 50.108C229.944 51.356 230.44 52.364 231.432 53.132C232.424 53.868 233.8 54.236 235.56 54.236C237.288 54.236 238.792 53.852 240.072 53.084C241.384 52.316 242.328 51.196 242.904 49.724L243.816 52.892C243.208 54.396 242.136 55.596 240.6 56.492C239.064 57.356 237.128 57.788 234.792 57.788ZM256.04 57.5V32.06H260.456V38.972L260.024 37.244C260.728 35.484 261.912 34.14 263.576 33.212C265.24 32.284 267.288 31.82 269.72 31.82V36.284C269.528 36.252 269.336 36.236 269.144 36.236C268.984 36.236 268.824 36.236 268.664 36.236C266.2 36.236 264.248 36.972 262.808 38.444C261.368 39.916 260.648 42.044 260.648 44.828V57.5H256.04ZM286.493 57.788C283.773 57.788 281.373 57.228 279.293 56.108C277.245 54.988 275.645 53.452 274.493 51.5C273.373 49.548 272.813 47.308 272.813 44.78C272.813 42.252 273.357 40.012 274.445 38.06C275.565 36.108 277.085 34.588 279.005 33.5C280.957 32.38 283.149 31.82 285.581 31.82C288.045 31.82 290.221 32.364 292.109 33.452C293.997 34.54 295.469 36.076 296.525 38.06C297.613 40.012 298.157 42.3 298.157 44.924C298.157 45.116 298.141 45.34 298.109 45.596C298.109 45.852 298.093 46.092 298.061 46.316H276.413V43.004H295.661L293.789 44.156C293.821 42.524 293.485 41.068 292.781 39.788C292.077 38.508 291.101 37.516 289.853 36.812C288.637 36.076 287.213 35.708 285.581 35.708C283.981 35.708 282.557 36.076 281.309 36.812C280.061 37.516 279.085 38.524 278.381 39.836C277.677 41.116 277.325 42.588 277.325 44.252V45.02C277.325 46.716 277.709 48.236 278.477 49.58C279.277 50.892 280.381 51.916 281.789 52.652C283.197 53.388 284.813 53.756 286.637 53.756C288.141 53.756 289.501 53.5 290.717 52.988C291.965 52.476 293.053 51.708 293.981 50.684L296.525 53.66C295.373 55.004 293.933 56.028 292.205 56.732C290.509 57.436 288.605 57.788 286.493 57.788Z" fill="white"/>
</svg>
