<svg width="80" height="80" viewBox="0 0 80 80" fill="none" xmlns="http://www.w3.org/2000/svg">
<rect width="80" height="80" rx="32" fill="#E01A4F"/>
<path d="M26.493 60.272C24.669 60.272 22.905 60.044 21.201 59.588C19.521 59.156 18.117 58.496 16.989 57.608L19.221 53.576C20.037 54.248 21.069 54.776 22.317 55.16C23.589 55.568 24.837 55.772 26.061 55.772C28.053 55.772 29.493 55.328 30.381 54.44C31.293 53.552 31.749 52.232 31.749 50.48V47.564L32.109 42.704L32.037 37.808V33.632H37.365V49.76C37.365 53.36 36.429 56.012 34.557 57.716C32.685 59.42 29.997 60.272 26.493 60.272ZM25.629 52.064C23.829 52.064 22.197 51.68 20.733 50.912C19.293 50.12 18.129 49.028 17.241 47.636C16.377 46.22 15.945 44.576 15.945 42.704C15.945 40.808 16.377 39.164 17.241 37.772C18.129 36.356 19.293 35.264 20.733 34.496C22.197 33.728 23.829 33.344 25.629 33.344C27.261 33.344 28.701 33.68 29.949 34.352C31.197 35 32.169 36.02 32.865 37.412C33.561 38.78 33.909 40.544 33.909 42.704C33.909 44.84 33.561 46.604 32.865 47.996C32.169 49.364 31.197 50.384 29.949 51.056C28.701 51.728 27.261 52.064 25.629 52.064ZM26.745 47.456C27.729 47.456 28.605 47.264 29.373 46.88C30.141 46.472 30.741 45.908 31.173 45.188C31.605 44.468 31.821 43.64 31.821 42.704C31.821 41.744 31.605 40.916 31.173 40.22C30.741 39.5 30.141 38.948 29.373 38.564C28.605 38.156 27.729 37.952 26.745 37.952C25.761 37.952 24.885 38.156 24.117 38.564C23.349 38.948 22.737 39.5 22.281 40.22C21.849 40.916 21.633 41.744 21.633 42.704C21.633 43.64 21.849 44.468 22.281 45.188C22.737 45.908 23.349 46.472 24.117 46.88C24.885 47.264 25.761 47.456 26.745 47.456ZM51.7 60.272C49.876 60.272 48.112 60.044 46.408 59.588C44.728 59.156 43.324 58.496 42.196 57.608L44.428 53.576C45.244 54.248 46.276 54.776 47.524 55.16C48.796 55.568 50.044 55.772 51.268 55.772C53.26 55.772 54.7 55.328 55.588 54.44C56.5 53.552 56.956 52.232 56.956 50.48V47.564L57.316 42.704L57.244 37.808V33.632H62.572V49.76C62.572 53.36 61.636 56.012 59.764 57.716C57.892 59.42 55.204 60.272 51.7 60.272ZM50.836 52.064C49.036 52.064 47.404 51.68 45.94 50.912C44.5 50.12 43.336 49.028 42.448 47.636C41.584 46.22 41.152 44.576 41.152 42.704C41.152 40.808 41.584 39.164 42.448 37.772C43.336 36.356 44.5 35.264 45.94 34.496C47.404 33.728 49.036 33.344 50.836 33.344C52.468 33.344 53.908 33.68 55.156 34.352C56.404 35 57.376 36.02 58.072 37.412C58.768 38.78 59.116 40.544 59.116 42.704C59.116 44.84 58.768 46.604 58.072 47.996C57.376 49.364 56.404 50.384 55.156 51.056C53.908 51.728 52.468 52.064 50.836 52.064ZM51.952 47.456C52.936 47.456 53.812 47.264 54.58 46.88C55.348 46.472 55.948 45.908 56.38 45.188C56.812 44.468 57.028 43.64 57.028 42.704C57.028 41.744 56.812 40.916 56.38 40.22C55.948 39.5 55.348 38.948 54.58 38.564C53.812 38.156 52.936 37.952 51.952 37.952C50.968 37.952 50.092 38.156 49.324 38.564C48.556 38.948 47.944 39.5 47.488 40.22C47.056 40.916 46.84 41.744 46.84 42.704C46.84 43.64 47.056 44.468 47.488 45.188C47.944 45.908 48.556 46.472 49.324 46.88C50.092 47.264 50.968 47.456 51.952 47.456Z" fill="white"/>
</svg>
